<svg fill="none"
    height="25"
    viewBox="0 0 25 25"
    width="25"
    xmlns="http://www.w3.org/2000/svg">
    <path
        d="M12.5 22.9166C18.253 22.9166 22.9167 18.2529 22.9167 12.5C22.9167 6.74701 18.253 2.08331 12.5 2.08331C6.74704 2.08331 2.08334 6.74701 2.08334 12.5C2.08334 18.2529 6.74704 22.9166 12.5 22.9166Z"
        fill="#424242"
        opacity="0.5" />
    <path
        d="M8.93229 9.84062C8.7375 7.66978 7.06354 5.64687 6.25 4.90728L5.80209 4.52187C7.67667 2.94351 10.0494 2.07964 12.5 2.08332C14.8063 2.08332 16.9375 2.83332 18.6625 4.09999C18.9063 4.84062 18.4417 6.38749 17.9542 7.12708C17.7771 7.39478 17.3771 7.72812 16.9375 8.04374C15.9479 8.7552 14.6979 9.10624 14.0625 10.4167C13.9037 10.7466 13.8729 11.1237 13.976 11.475C14.0385 11.7042 14.0802 11.9531 14.0802 12.1958C14.0823 12.9823 13.2865 13.55 12.5 13.5417C10.4542 13.5198 9.11459 11.8708 8.93229 9.84062ZM13.9969 19.0375C15.026 17.0979 18.4563 17.0979 18.4563 17.0979C22.0313 17.0604 22.5146 14.8896 22.8375 13.7927C22.5527 16.0647 21.5276 18.1797 19.9207 19.811C18.3138 21.4422 16.2144 22.4989 13.9469 22.8177C13.6104 22.1094 13.2125 20.5156 13.9969 19.0375Z"
        fill="#424242" />
</svg>
